<svg width="25" height="24" viewBox="0 0 25 24" fill="none" xmlns="http://www.w3.org/2000/svg">
<path d="M12.6 2C11.6111 2 10.6444 2.29324 9.82215 2.84265C8.99991 3.39206 8.35905 4.17295 7.98061 5.08658C7.60217 6.00021 7.50315 7.00555 7.69608 7.97545C7.88901 8.94536 8.36521 9.83627 9.06447 10.5355C9.76373 11.2348 10.6546 11.711 11.6246 11.9039C12.5945 12.0969 13.5998 11.9978 14.5134 11.6194C15.4271 11.241 16.2079 10.6001 16.7574 9.77785C17.3068 8.95561 17.6 7.98891 17.6 7C17.6 5.67392 17.0732 4.40215 16.1355 3.46447C15.1979 2.52678 13.9261 2 12.6 2ZM12.6 10C12.0067 10 11.4266 9.82405 10.9333 9.49441C10.4399 9.16476 10.0554 8.69623 9.82837 8.14805C9.6013 7.59987 9.54189 6.99667 9.65765 6.41473C9.77341 5.83279 10.0591 5.29824 10.4787 4.87868C10.8982 4.45912 11.4328 4.1734 12.0147 4.05764C12.5967 3.94189 13.1999 4.0013 13.7481 4.22836C14.2962 4.45542 14.7648 4.83994 15.0944 5.33329C15.4241 5.82664 15.6 6.40666 15.6 7C15.6 7.79565 15.2839 8.55871 14.7213 9.12132C14.1587 9.68393 13.3957 10 12.6 10ZM21.6 21V20C21.6 18.1435 20.8625 16.363 19.5498 15.0503C18.237 13.7375 16.4565 13 14.6 13H10.6C8.74349 13 6.96301 13.7375 5.65026 15.0503C4.3375 16.363 3.60001 18.1435 3.60001 20V21H5.60001V20C5.60001 18.6739 6.12679 17.4021 7.06447 16.4645C8.00215 15.5268 9.27392 15 10.6 15H14.6C15.9261 15 17.1979 15.5268 18.1355 16.4645C19.0732 17.4021 19.6 18.6739 19.6 20V21H21.6Z" fill="#BABABA"/>
</svg>
