<svg width="25" height="24" viewBox="0 0 25 24" fill="none" xmlns="http://www.w3.org/2000/svg">
<path d="M5.39999 21.9998H19.4C19.9304 21.9998 20.4391 21.7891 20.8142 21.414C21.1893 21.039 21.4 20.5303 21.4 19.9998V10.9998C21.4008 10.8682 21.3755 10.7377 21.3258 10.6159C21.276 10.4941 21.2027 10.3833 21.11 10.2898L13.11 2.28982C12.9226 2.10357 12.6692 1.99902 12.405 1.99902C12.1408 1.99902 11.8874 2.10357 11.7 2.28982L3.69999 10.2898C3.60551 10.3824 3.53034 10.4929 3.47884 10.6148C3.42734 10.7366 3.40054 10.8675 3.39999 10.9998V19.9998C3.39999 20.5303 3.61071 21.039 3.98578 21.414C4.36085 21.7891 4.86956 21.9998 5.39999 21.9998ZM10.4 19.9998V14.9998H14.4V19.9998H10.4ZM5.39999 11.4098L12.4 4.40982L19.4 11.4098V19.9998H16.4V14.9998C16.4 14.4694 16.1893 13.9607 15.8142 13.5856C15.4391 13.2105 14.9304 12.9998 14.4 12.9998H10.4C9.86956 12.9998 9.36085 13.2105 8.98578 13.5856C8.61071 13.9607 8.39999 14.4694 8.39999 14.9998V19.9998H5.39999V11.4098Z" fill="white"/>
</svg>
