<svg width="44" height="44" viewBox="0 0 44 44" fill="none" xmlns="http://www.w3.org/2000/svg">
<rect width="44" height="44" rx="22" fill="white" fill-opacity="0.3"/>
<path d="M31.7075 30L29.6845 27.977C31.1849 26.2333 32.0068 24.0074 31.9995 21.707C31.9995 17.616 29.5275 14.254 26.0005 12.707V14.707C28.3875 16.093 29.9995 18.754 29.9995 21.707C29.9951 23.4836 29.4077 25.2096 28.3275 26.62L27.0425 25.335C27.6445 24.243 28.0005 22.897 28.0005 21.707C28.0005 19.936 27.2255 17.807 26.0005 16.707V24.293L24.0005 22.293V13.707C24.0004 13.5261 23.9512 13.3486 23.8583 13.1935C23.7653 13.0383 23.632 12.9113 23.4725 12.8259C23.313 12.7405 23.1334 12.7 22.9527 12.7087C22.772 12.7173 22.5971 12.7748 22.4465 12.875L17.7275 16.02L13.7075 12L12.2935 13.414L30.2935 31.414L31.7075 30ZM22.0005 15.575V20.293L19.1695 17.462L22.0005 15.575ZM14.0005 26.707H16.6975L22.4455 30.539C22.5963 30.6391 22.7713 30.6966 22.9521 30.7054C23.1329 30.7142 23.3127 30.674 23.4725 30.589C23.6321 30.5035 23.7655 30.3764 23.8585 30.221C23.9515 30.0657 24.0006 29.888 24.0005 29.707V27.828L22.0005 25.828V27.839L17.5555 24.875C17.5305 24.858 17.4995 24.855 17.4735 24.842C17.3554 24.7777 17.2254 24.7382 17.0915 24.726C17.0595 24.723 17.0325 24.707 17.0005 24.707H14.0005V18.707H14.8795L13.1025 16.93C12.7724 17.0952 12.4946 17.3488 12.3 17.6626C12.1055 17.9763 12.0018 18.3378 12.0005 18.707V24.707C12.0005 25.81 12.8975 26.707 14.0005 26.707Z" fill="#09090C" fill-opacity="0.3"/>
</svg>
